# xmcd
#
# Track frame offsets: 
#        150
#        12589
#        33163
#        47044
#        61088
#        89204
#        102149
#        113981
#        125544
#        139887
#        151641
#        163698
#
# Disc length: 2443 seconds
#
# Revision: 0
# Processed by: cddbd v1.5.2PL0 Copyright (c) Steve Scherf et al.
# Submitted via: ExactAudioCopyFreeDBPlugin 1.0
#
DISCID=9b09890c
DTITLE=Willie Edwards - Everlastin Tears
DYEAR=1997
DGENRE=Blues
TTITLE0=Everlastin' Tears
TTITLE1=Dollar In
TTITLE2=Been A Long Time
TTITLE3=Read Between The Lines
TTITLE4=Helpless, Hopless Feeling
TTITLE5=True Is What They Say
TTITLE6=Heart Of Diception
TTITLE7=Can't Create Desire
TTITLE8=Won't Be Back
TTITLE9=Bottom's Falling Out
TTITLE10=Company Store
TTITLE11=90s Blues
EXTD=
EXTT0=
EXTT1=
EXTT2=
EXTT3=
EXTT4=
EXTT5=
EXTT6=
EXTT7=
EXTT8=
EXTT9=
EXTT10=
EXTT11=
PLAYORDER=
